<?xml version="1.0" ?><svg fill="none" height="24" viewBox="0 0 24 24" width="24" xmlns="http://www.w3.org/2000/svg"><path clip-rule="evenodd" d="M9.5 3C9.5 2.44772 9.94772 2 10.5 2H13.5C14.0523 2 14.5 2.44772 14.5 3V4.39866C14.8826 4.52443 15.2524 4.67822 15.6069 4.85756L16.5962 3.86827C16.9867 3.47775 17.6199 3.47775 18.0104 3.86827L20.1317 5.98959C20.3193 6.17713 20.4246 6.43148 20.4246 6.6967C20.4246 6.96192 20.3193 7.21627 20.1317 7.40381L19.1424 8.3931C19.3218 8.74763 19.4756 9.11741 19.6013 9.5H21C21.5523 9.5 22 9.94772 22 10.5V13.5C22 14.0523 21.5523 14.5 21 14.5H19.6013C19.4756 14.8826 19.3218 15.2524 19.1424 15.6069L20.1317 16.5962C20.5223 16.9867 20.5223 17.6199 20.1317 18.0104L18.0104 20.1317C17.6199 20.5223 16.9867 20.5223 16.5962 20.1317L15.6069 19.1424C15.2524 19.3218 14.8826 19.4756 14.5 19.6013V21C14.5 21.5523 14.0523 22 13.5 22H10.5C9.94772 22 9.5 21.5523 9.5 21V19.6013C9.11741 19.4756 8.74763 19.3218 8.3931 19.1424L7.40381 20.1317C7.21627 20.3193 6.96192 20.4246 6.6967 20.4246C6.43148 20.4246 6.17713 20.3193 5.98959 20.1317L3.86827 18.0104C3.47775 17.6199 3.47775 16.9867 3.86827 16.5962L4.85756 15.6069C4.67822 15.2524 4.52443 14.8826 4.39866 14.5H3C2.44772 14.5 2 14.0523 2 13.5V10.5C2 9.94772 2.44772 9.5 3 9.5H4.39866C4.52443 9.11741 4.67822 8.74763 4.85756 8.3931L3.86827 7.40381C3.47775 7.01328 3.47775 6.38012 3.86827 5.98959L5.98959 3.86827C6.38012 3.47775 7.01328 3.47775 7.40381 3.86827L8.3931 4.85756C8.74763 4.67822 9.11741 4.52443 9.5 4.39866V3ZM9.53819 7.61302C9.86892 7.44083 10.268 7.46694 10.5735 7.68077L15.5735 11.1808C15.8408 11.3679 16 11.6737 16 12C16 12.3263 15.8408 12.6321 15.5735 12.8192L10.5735 16.3192C10.268 16.5331 9.86892 16.5592 9.53819 16.387C9.20746 16.2148 9 15.8729 9 15.5V8.5C9 8.12713 9.20746 7.78522 9.53819 7.61302Z" fill="black" fill-rule="evenodd"/></svg>